<?xml version="1.0" standalone="no"?>
<!DOCTYPE svg PUBLIC "-//W3C//DTD SVG 20010904//EN"
 "http://www.w3.org/TR/2001/REC-SVG-20010904/DTD/svg10.dtd">
<svg version="1.0" xmlns="http://www.w3.org/2000/svg"
 width="469.000000pt" height="123.000000pt" viewBox="0 0 469.000000 123.000000"
 preserveAspectRatio="xMidYMid meet">

<g transform="translate(0.000000,123.000000) scale(0.100000,-0.100000)"
fill="#000000" stroke="none">
<path d="M168 916 c-54 -68 -86 -133 -109 -224 -23 -90 -24 -153 -4 -247 22
-105 75 -204 149 -278 222 -222 575 -225 798 -6 137 134 199 345 153 524 -20
77 -75 189 -119 240 -32 37 -39 40 -91 41 l-55 2 54 -53 c100 -99 147 -208
147 -345 0 -196 -101 -360 -274 -445 -321 -158 -697 80 -697 440 0 130 42 234
132 330 32 35 58 65 58 68 0 3 -23 5 -51 4 -49 0 -53 -2 -91 -51z"/>
<path d="M1694 885 c-101 -50 -150 -177 -141 -360 6 -116 30 -193 79 -244 60
-64 148 -86 228 -57 34 12 36 11 84 -31 26 -24 52 -41 56 -38 5 3 15 25 23 49
l15 44 -38 26 -38 25 26 63 c24 58 27 74 26 198 0 116 -3 143 -22 192 -55 137
-179 193 -298 133z m146 -110 c17 -9 40 -34 52 -58 19 -36 23 -58 23 -147 0
-96 -15 -171 -34 -170 -3 0 -24 14 -45 30 -43 33 -48 31 -64 -17 -10 -30 -9
-34 18 -50 33 -19 30 -33 -7 -33 -40 0 -82 31 -106 80 -18 38 -22 62 -22 150
0 88 4 112 22 150 36 73 99 98 163 65z"/>
<path d="M2670 888 c-59 -30 -90 -89 -90 -168 1 -105 45 -162 153 -199 114
-39 135 -61 122 -121 -8 -37 -49 -70 -86 -70 -59 0 -90 29 -114 108 -6 21 -11
23 -48 17 -23 -4 -44 -9 -46 -11 -9 -9 21 -111 44 -150 53 -91 206 -113 283
-42 48 46 64 93 60 184 -3 74 -6 86 -34 121 -21 25 -51 46 -90 62 -124 49
-135 55 -145 72 -16 30 -10 57 17 78 54 43 128 18 140 -45 l7 -36 46 7 c25 4
48 8 50 10 10 10 -13 97 -32 126 -35 51 -68 70 -133 76 -48 4 -67 0 -104 -19z"/>
<path d="M3650 888 c-56 -29 -105 -93 -127 -166 -23 -77 -23 -247 0 -324 36
-122 124 -192 230 -186 81 6 131 43 177 132 l35 69 0 147 0 147 -35 69 c-45
88 -93 124 -176 131 -48 4 -67 0 -104 -19z m165 -128 c41 -38 58 -109 53 -218
-7 -151 -57 -223 -146 -208 -76 12 -117 91 -117 226 0 101 22 167 68 206 26
22 38 25 75 21 26 -3 53 -14 67 -27z"/>
<path d="M2100 561 l0 -341 50 0 50 0 0 140 0 140 30 0 c44 0 67 -29 130 -162
l55 -117 59 0 c49 -1 57 1 52 15 -34 88 -97 213 -122 243 l-32 36 36 20 c60
34 76 66 80 154 3 62 0 88 -16 124 -33 74 -53 81 -224 85 l-148 4 0 -341z
m268 203 c17 -12 22 -25 22 -60 0 -68 -22 -84 -115 -84 l-75 0 0 80 0 80 73 0
c49 0 80 -5 95 -16z"/>
<path d="M3040 560 l0 -340 45 0 45 0 0 145 0 145 100 0 100 0 0 -145 0 -145
45 0 45 0 0 340 0 340 -45 0 -45 0 0 -135 0 -135 -100 0 -100 0 0 135 0 135
-45 0 -45 0 0 -340z"/>
<path d="M4007 868 c3 -18 28 -170 56 -338 l52 -305 51 -3 c35 -2 53 1 56 10
3 7 25 118 49 245 24 128 46 229 50 225 4 -4 25 -106 48 -227 23 -121 44 -228
47 -238 5 -15 15 -17 57 -15 l51 3 52 310 c29 171 55 322 58 338 5 27 5 27
-44 27 -28 0 -50 -2 -50 -4 0 -14 -70 -449 -73 -452 -2 -2 -20 90 -41 204 -21
114 -40 217 -43 230 -5 20 -11 22 -63 22 l-57 0 -27 -142 c-15 -79 -34 -180
-43 -226 -8 -46 -17 -81 -19 -79 -2 2 -18 91 -34 198 -43 278 -33 249 -90 249
l-49 0 6 -32z"/>
<path d="M822 858 c-21 -21 -14 -66 13 -84 23 -15 27 -15 50 0 29 19 33 56 9
80 -18 19 -55 21 -72 4z"/>
<path d="M537 806 c-60 -16 -113 -59 -152 -121 -26 -42 -30 -58 -30 -119 1
-152 104 -256 253 -256 67 0 115 17 161 56 80 67 113 196 74 285 -55 125 -183
189 -306 155z m153 -86 c86 -44 119 -159 72 -246 -31 -59 -121 -101 -187 -88
-48 9 -108 54 -128 97 -44 92 2 215 93 250 35 13 112 6 150 -13z"/>
</g>
</svg>
