<?xml version="1.0" standalone="no"?>
<!DOCTYPE svg PUBLIC "-//W3C//DTD SVG 20010904//EN"
 "http://www.w3.org/TR/2001/REC-SVG-20010904/DTD/svg10.dtd">
<svg version="1.0" xmlns="http://www.w3.org/2000/svg"
 width="569.000000pt" height="698.000000pt" viewBox="0 0 569.000000 698.000000"
 preserveAspectRatio="xMidYMid meet">

<g transform="translate(0.000000,698.000000) scale(0.100000,-0.100000)"
fill="#000000" stroke="none">
<path d="M57 6858 c4 -68 8 -139 7 -158 0 -19 -1 -84 -2 -145 -2 -60 4 -166
12 -235 9 -69 15 -184 15 -257 -1 -72 1 -135 4 -140 3 -5 8 -60 11 -123 4 -63
9 -148 12 -189 5 -62 11 -271 16 -551 1 -36 5 -144 10 -240 11 -240 19 -576
24 -1010 2 -201 6 -448 9 -550 3 -102 7 -327 9 -500 3 -190 9 -326 15 -343 6
-16 11 -74 10 -130 -2 -148 -18 -77 -30 123 -4 85 -13 225 -19 310 -5 85 -10
205 -10 267 0 62 -4 190 -10 285 -5 95 -11 271 -14 391 -3 120 -7 221 -10 225
-3 5 -6 96 -7 203 -1 107 -6 235 -10 284 -5 50 -11 158 -13 240 -14 471 -17
574 -26 710 -6 83 -12 220 -14 305 -2 85 -9 270 -15 410 -6 140 -15 336 -20
435 -4 103 -9 -912 -9 -2377 -1 -1407 0 -2558 3 -2558 3 0 23 11 45 25 22 14
52 25 68 25 16 0 32 3 35 6 4 4 41 21 84 38 54 22 82 40 90 56 7 14 8 27 3 30
-5 3 -10 122 -10 270 -1 146 -8 371 -16 500 -29 472 -35 679 -39 1390 -3 399
-9 898 -14 1110 -6 212 -15 590 -21 840 -5 250 -15 574 -20 720 -6 146 -10
302 -10 348 l0 82 -76 0 -75 0 8 -122z"/>
<path d="M357 6843 c3 -76 8 -155 13 -175 4 -20 5 -58 2 -84 -3 -28 -1 -49 6
-53 7 -4 12 -111 16 -319 2 -171 7 -316 10 -320 3 -5 8 -112 12 -238 8 -273 6
-255 26 -324 13 -44 17 -120 21 -375 12 -791 19 -1141 23 -1147 2 -4 7 -143 9
-310 3 -167 10 -328 15 -358 8 -47 13 -205 10 -315 -1 -47 9 -371 14 -460 3
-54 2 -65 -3 -35 -4 26 -7 -48 -7 -177 0 -122 4 -219 8 -217 4 3 3 -7 -2 -22
-6 -15 -8 -29 -5 -32 3 -3 5 0 5 7 0 7 4 9 10 6 20 -12 66 28 105 92 22 36 55
82 72 102 18 20 33 41 33 47 0 5 15 26 33 46 17 19 56 69 86 111 37 52 67 82
96 97 23 12 50 36 60 53 10 18 26 37 34 44 13 9 14 14 4 24 -7 7 -13 21 -13
30 0 10 -5 19 -12 21 -7 3 -9 14 -4 31 5 20 11 25 24 20 12 -4 8 3 -10 24 -16
16 -28 36 -28 44 0 7 -10 30 -22 49 -12 19 -23 42 -24 50 -2 21 -54 170 -69
200 -32 63 -44 237 -25 359 6 36 13 80 16 98 3 18 10 38 17 46 7 7 17 22 23
32 6 11 26 28 45 37 21 10 27 17 17 18 -22 0 -24 18 -3 26 8 4 15 14 15 24 0
11 5 22 10 25 6 4 10 -8 10 -30 0 -34 2 -36 28 -33 20 2 26 8 25 23 -11 102
-33 246 -42 269 -8 19 -8 33 -2 39 5 5 7 16 4 23 -3 8 0 21 7 29 11 13 10 14
-3 9 -14 -5 -16 2 -14 45 1 28 5 51 10 51 4 0 7 11 7 25 0 25 -1 25 -25 9
l-24 -16 15 32 c16 32 14 47 -5 35 -6 -3 -8 -11 -5 -17 4 -7 2 -8 -4 -4 -9 5
-9 13 -2 26 7 13 7 28 -1 47 -5 15 -7 24 -3 20 12 -12 36 14 24 28 -6 8 -4 19
8 36 9 13 15 32 14 42 -2 9 2 17 9 17 8 0 7 5 -2 17 -13 15 -12 15 11 2 14 -8
27 -15 30 -17 2 -2 -2 -8 -10 -13 -13 -9 -13 -10 0 -6 9 2 14 14 13 26 -2 14
8 31 25 46 20 19 24 27 14 33 -9 6 -6 12 13 20 15 7 24 8 20 2 -3 -6 3 -10 15
-10 19 0 21 4 16 25 -4 16 -2 25 5 25 6 0 9 6 6 14 -3 8 2 16 14 19 14 4 19
14 19 42 0 34 2 36 27 33 26 -3 26 -2 25 59 0 44 4 66 15 74 12 11 14 10 13
-2 -7 -49 22 -54 38 -6 7 22 10 26 11 12 1 -18 3 -17 15 5 14 27 3 55 -18 43
-6 -3 -7 -2 -3 3 5 5 14 9 20 9 7 0 12 5 12 12 0 6 3 14 7 18 3 4 5 -5 4 -19
-2 -15 0 -29 5 -32 4 -2 6 -11 3 -18 -3 -8 -1 -17 5 -21 13 -7 20 9 25 51 2
16 4 32 5 37 0 4 10 7 21 7 11 0 20 4 20 10 0 5 6 7 14 4 7 -3 16 2 20 12 5
12 9 14 20 5 10 -8 16 -5 25 15 10 22 17 26 46 22 34 -4 34 -3 45 45 11 54 13
77 4 77 -7 0 -167 -102 -174 -111 -3 -3 -32 -27 -65 -54 -82 -65 -206 -197
-200 -213 3 -7 1 -10 -5 -7 -12 7 -112 -119 -152 -192 -17 -32 -35 -59 -40
-61 -4 -2 -8 -10 -8 -18 0 -8 -4 -14 -10 -14 -5 0 -10 -11 -10 -25 0 -14 -9
-45 -21 -69 -11 -25 -22 -52 -23 -60 -1 -9 -8 -22 -14 -28 -9 -9 -12 24 -12
148 0 200 25 364 80 534 54 165 72 279 64 400 -7 101 3 170 39 275 19 56 61
110 78 99 4 -2 9 2 12 8 2 7 8 0 12 -17 8 -27 2 -61 -42 -280 l-6 -30 22 20
c26 22 129 229 165 331 30 82 76 241 76 259 0 8 -10 15 -22 17 -98 14 -15 293
106 355 28 15 29 17 11 24 -13 6 -6 6 20 3 65 -9 72 -13 85 -45 18 -42 -3
-134 -45 -201 -24 -37 -31 -57 -25 -72 16 -45 145 -22 133 24 -5 20 6 25 47
21 10 -1 11 1 4 6 -7 5 -8 19 -2 41 10 37 25 42 30 10 3 -22 4 -21 21 6 18 26
18 41 7 269 -6 133 -15 301 -20 372 -6 72 -10 151 -10 178 l0 47 -269 0 -269
0 4 -42 c2 -24 6 -54 9 -68 3 -14 6 -220 7 -459 2 -334 -1 -436 -10 -439 -14
-4 -17 -162 -3 -162 5 0 2 -18 -6 -40 -9 -22 -21 -40 -26 -40 -6 0 -3 -6 8
-13 23 -17 12 -37 -21 -37 -18 0 -24 -5 -24 -22 0 -15 -3 -19 -10 -12 -6 6
-13 97 -16 205 -4 106 -11 196 -15 197 -5 2 -9 19 -9 39 0 26 -5 36 -20 40
-24 6 -24 8 -8 141 7 64 16 102 23 102 20 0 35 472 19 573 l-7 37 -387 0 -388
0 5 -137z m1263 -1867 c0 -3 -4 -8 -10 -11 -5 -3 -10 -1 -10 4 0 6 5 11 10 11
6 0 10 -2 10 -4z m-813 -332 c-3 -3 -12 -4 -19 -1 -8 3 -5 6 6 6 11 1 17 -2
13 -5z m-25 -176 c-9 -9 -12 -7 -12 12 0 19 3 21 12 12 9 -9 9 -15 0 -24z
m338 -42 c0 -2 -7 -9 -15 -16 -12 -10 -15 -10 -15 4 0 9 7 16 15 16 8 0 15 -2
15 -4z m-333 -278 c-2 -13 -4 -3 -4 22 0 25 2 35 4 23 2 -13 2 -33 0 -45z
m-15 -370 c0 -18 0 -46 -1 -61 -2 -18 4 -34 16 -42 20 -15 7 -40 -14 -27 -15
10 -29 162 -14 162 6 0 12 -15 13 -32z m228 -111 c0 -10 -4 -15 -10 -12 -5 3
-10 18 -10 33 0 21 2 24 10 12 5 -8 10 -23 10 -33z"/>
<path d="M2818 6751 l5 -230 -29 -6 c-16 -3 -42 -10 -59 -15 -25 -8 -26 -9 -3
-5 14 3 37 1 50 -4 17 -6 7 -8 -37 -7 -68 3 -102 -8 -110 -36 -4 -10 -11 -18
-16 -18 -5 0 -9 -7 -9 -15 0 -9 9 -15 25 -15 14 0 28 -7 32 -16 5 -13 7 -13
14 -2 7 10 9 9 9 -4 0 -11 6 -15 20 -11 12 3 20 0 20 -7 0 -10 3 -10 14 -1 11
9 15 9 18 -1 4 -11 10 -10 31 1 14 7 34 12 44 9 10 -3 24 1 31 8 6 7 29 16 49
20 21 4 51 15 68 26 l30 18 -27 0 c-16 0 -28 -4 -28 -10 0 -5 -4 -10 -10 -10
-24 0 18 60 51 72 13 5 16 2 12 -12 -3 -11 -12 -21 -22 -23 -11 -3 -9 -5 7 -6
27 -1 28 -11 5 -38 -22 -25 -56 -43 -80 -43 -21 0 -50 -17 -42 -24 3 -3 20 -2
37 3 21 7 32 6 32 -1 0 -6 8 -7 18 -3 31 12 51 14 57 5 3 -5 12 -7 20 -3 8 3
15 0 15 -6 0 -6 5 -11 10 -11 12 0 13 94 3 418 l-6 232 -127 0 -127 0 5 -229z
m-82 -298 c-6 -7 -65 10 -61 17 3 5 18 3 35 -3 16 -6 28 -12 26 -14z m198 12
c-4 -8 -7 -15 -9 -15 -2 0 -5 7 -9 15 -3 9 0 15 9 15 9 0 12 -6 9 -15z m-251
-35 c-3 -11 -7 -20 -9 -20 -2 0 -4 9 -4 20 0 11 4 20 9 20 5 0 7 -9 4 -20z"/>
<path d="M2085 6848 c-16 -6 -43 -20 -60 -31 -16 -10 -21 -16 -10 -12 50 18
60 17 30 -4 -20 -14 -38 -19 -54 -16 -21 5 -23 4 -12 -8 10 -13 13 -82 2 -72
-2 3 -10 0 -17 -6 -10 -8 -10 -15 -2 -29 9 -14 9 -25 0 -44 -12 -27 -7 -32 16
-18 7 5 10 16 6 25 -3 10 -1 17 5 17 7 0 15 -10 20 -22 l8 -23 7 23 c10 29 30
29 24 -1 -4 -20 -1 -22 29 -19 28 4 31 7 22 23 -6 13 -6 19 1 19 5 0 10 9 10
20 0 26 3 25 51 -10 36 -26 43 -28 56 -14 9 9 12 21 7 32 -11 25 -5 52 17 75
24 27 24 17 -1 -27 -13 -24 -16 -37 -9 -42 14 -8 27 12 35 53 4 23 0 42 -13
65 -16 28 -24 33 -54 31 -29 -2 -30 -1 -9 6 l25 7 -25 7 c-34 9 -69 7 -105 -5z
m35 -18 c-20 -13 -43 -13 -35 0 3 6 16 10 28 10 18 0 19 -2 7 -10z m108 -21
c-10 -6 -21 -74 -20 -121 1 -18 -4 -28 -13 -28 -8 0 -15 5 -15 10 0 6 6 10 13
10 9 0 9 2 0 8 -6 4 -13 23 -15 42 -3 33 -5 35 -46 38 -61 5 -41 22 26 23 51
1 54 2 27 10 -16 5 -38 7 -47 5 -10 -2 -18 0 -18 5 0 5 27 8 59 7 33 -2 55 -6
49 -9z m-141 -15 c-3 -3 -12 -4 -19 -1 -8 3 -5 6 6 6 11 1 17 -2 13 -5z m3
-74 c0 -5 -7 -7 -15 -4 -8 4 -15 8 -15 10 0 2 7 4 15 4 8 0 15 -4 15 -10z
m-40 -15 c0 -8 -7 -15 -16 -15 -14 0 -14 3 -4 15 7 8 14 15 16 15 2 0 4 -7 4
-15z"/>
<path d="M1941 6748 c-14 -23 -14 -23 8 -4 22 20 25 26 13 26 -4 0 -13 -10
-21 -22z"/>
<path d="M1920 6710 c0 -13 18 -22 24 -11 3 5 -1 11 -9 15 -8 3 -15 1 -15 -4z"/>
<path d="M2132 6633 c3 -12 2 -26 -2 -33 -5 -7 -2 -34 6 -59 16 -54 18 -72 4
-51 -8 11 -9 9 -5 -10 3 -14 7 -40 9 -58 2 -18 7 -36 11 -40 4 -4 4 3 1 15 -4
12 -2 24 3 28 6 3 8 0 6 -8 -3 -7 4 -22 16 -33 22 -19 22 -19 14 1 -42 105
-58 201 -35 215 15 9 23 40 10 40 -5 0 -16 3 -26 7 -14 5 -16 2 -12 -14z"/>
<path d="M1923 6616 c1 -16 9 -32 17 -34 12 -4 13 -2 4 9 -7 8 -14 23 -17 34
-4 13 -5 9 -4 -9z"/>
<path d="M2000 6590 c8 -5 20 -10 25 -10 6 0 3 5 -5 10 -8 5 -19 10 -25 10 -5
0 -3 -5 5 -10z"/>
<path d="M1975 6560 c3 -5 13 -10 21 -10 8 0 12 5 9 10 -3 6 -13 10 -21 10 -8
0 -12 -4 -9 -10z"/>
<path d="M2062 6551 c4 -13 18 -16 19 -4 0 4 -5 9 -11 12 -7 2 -11 -2 -8 -8z"/>
<path d="M5379 6476 c-2 -2 -465 -9 -1028 -16 -564 -6 -1029 -14 -1033 -17 -5
-3 -2 -14 8 -24 9 -10 13 -19 8 -19 -5 0 -2 -5 6 -10 20 -13 77 -13 82 1 2 7
12 7 31 0 19 -8 377 -11 1133 -11 l1104 0 0 50 0 50 -153 0 c-85 0 -156 -2
-158 -4z m-1856 -73 c-7 -2 -19 -2 -25 0 -7 3 -2 5 12 5 14 0 19 -2 13 -5z"/>
<path d="M1991 6458 c0 -9 -4 -25 -7 -35 -5 -14 -4 -15 5 -7 7 7 11 22 8 35
-2 13 -5 16 -6 7z"/>
<path d="M3270 6438 c0 -7 5 -20 10 -28 8 -13 10 -12 10 3 0 9 0 20 1 24 0 4
-4 9 -10 11 -6 2 -11 -2 -11 -10z"/>
<path d="M2031 6404 c0 -11 3 -14 6 -6 3 7 2 16 -1 19 -3 4 -6 -2 -5 -13z"/>
<path d="M1940 6309 c-7 -11 -10 -23 -7 -25 2 -2 9 7 15 21 14 30 7 33 -8 4z"/>
<path d="M2230 6311 c0 -15 38 -51 53 -51 6 0 4 6 -4 13 -8 6 -22 21 -31 32
-12 13 -18 15 -18 6z"/>
<path d="M2574 6275 c-8 -31 -20 -32 -28 -2 l-7 22 -11 -22 c-13 -26 -28 -30
-28 -8 0 36 -29 0 -30 -37 0 -25 140 5 148 31 3 8 0 11 -7 7 -7 -5 -11 1 -11
13 0 29 -18 26 -26 -4z"/>
<path d="M2660 6290 c0 -5 5 -10 11 -10 5 0 7 5 4 10 -3 6 -8 10 -11 10 -2 0
-4 -4 -4 -10z"/>
<path d="M2904 6268 c-14 -44 59 -164 155 -256 113 -108 210 -162 291 -162 53
0 57 21 14 80 -21 30 -38 67 -41 91 -3 22 -12 43 -19 46 -7 2 -10 11 -7 19 3
8 0 14 -7 14 -7 0 -10 8 -7 20 6 22 -8 28 -16 8 -2 -7 -8 -10 -12 -6 -4 4 -2
14 5 23 8 9 8 15 2 15 -6 0 -14 -5 -18 -11 -4 -8 -9 -7 -15 2 -7 11 -9 11 -9
-2 0 -9 -9 -24 -21 -35 -20 -18 -20 -18 -17 6 2 14 7 31 11 37 6 10 2 11 -17
3 -20 -7 -26 -6 -26 5 0 7 5 17 10 20 6 3 10 12 10 18 0 9 -3 8 -8 -1 -13 -19
-62 -26 -62 -8 0 8 -4 18 -10 21 -6 3 -7 -1 -4 -9 3 -9 2 -16 -2 -16 -17 1
-44 27 -44 44 0 19 -4 20 -31 6 -15 -9 -19 -7 -19 5 0 10 5 13 12 9 7 -4 8 -3
4 4 -10 17 -27 15 -43 -5 -13 -17 -14 -16 -10 8 3 22 0 27 -19 27 -15 0 -26
-8 -30 -20z"/>
<path d="M2635 6270 c3 -5 8 -10 11 -10 2 0 4 5 4 10 0 6 -5 10 -11 10 -5 0
-7 -4 -4 -10z"/>
<path d="M2426 6244 c-10 -25 1 -29 14 -5 6 12 7 21 1 21 -5 0 -12 -7 -15 -16z"/>
<path d="M2315 6220 c-3 -5 -2 -10 4 -10 5 0 13 5 16 10 3 6 2 10 -4 10 -5 0
-13 -4 -16 -10z"/>
<path d="M3360 6145 c-14 -8 -21 -14 -16 -15 5 0 3 -7 -4 -15 -8 -10 -9 -15
-2 -15 6 0 11 -18 10 -42 -1 -45 4 -62 30 -116 12 -23 18 -28 20 -17 5 22 23
14 33 -13 6 -16 5 -22 -6 -22 -9 0 -15 -10 -15 -24 0 -21 -6 -25 -41 -31 -39
-7 -40 -8 -22 -25 17 -17 19 -17 35 3 9 12 20 18 24 14 4 -4 1 -7 -6 -7 -11 0
-11 -3 -2 -12 7 -7 12 -27 12 -45 0 -28 4 -33 23 -33 21 0 35 -15 65 -69 10
-20 10 -26 0 -33 -12 -8 24 -3 59 7 7 2 21 -11 33 -29 11 -19 28 -36 38 -38 9
-3 22 -6 27 -7 18 -5 35 -23 29 -32 -3 -5 -9 -7 -14 -4 -4 3 -10 -5 -14 -18
-9 -36 -7 -44 7 -18 17 34 32 36 59 8 32 -34 187 -144 261 -187 132 -76 230
-160 233 -200 1 -15 10 -37 20 -48 16 -19 18 -20 30 -4 12 15 13 14 14 -11 0
-42 28 -91 44 -78 7 6 16 8 20 4 4 -4 4 1 0 12 -6 16 -5 18 7 8 19 -19 43 -16
70 7 l24 20 -49 -6 c-34 -4 -46 -3 -42 5 4 6 14 11 23 11 9 0 13 3 9 7 -8 8
-13 9 -66 11 -30 2 -32 4 -20 16 8 8 26 17 40 21 17 4 21 3 12 -3 -11 -7 -10
-10 3 -16 26 -10 53 -7 61 6 5 7 2 9 -9 5 -11 -4 -14 -2 -11 8 3 7 -3 16 -15
20 -25 8 -28 25 -4 25 12 0 7 9 -17 30 -18 17 -37 30 -42 30 -17 0 -7 20 10
20 13 1 11 4 -8 15 -22 13 -23 14 -5 15 14 0 8 7 -20 20 -37 18 -35 25 7 21
13 -2 16 2 11 15 -4 12 -3 15 5 10 7 -4 12 -2 12 3 0 6 -9 11 -19 11 -26 0
-36 17 -14 23 10 2 4 3 -14 2 -17 -2 -40 3 -50 10 -17 13 -17 14 5 8 16 -4 22
-1 22 12 0 11 -5 15 -15 12 -8 -4 -17 -2 -20 3 -4 6 4 11 17 11 20 1 21 2 3 6
-11 3 -24 9 -30 14 -5 5 -16 9 -25 8 -10 0 -9 -3 5 -9 11 -5 14 -9 7 -9 -8 -1
-25 8 -39 19 -14 11 -37 20 -52 20 -23 1 -24 2 -8 11 14 8 22 8 30 0 6 -6 25
-11 42 -10 l30 0 -34 12 c-41 14 -53 37 -20 37 27 0 15 16 -16 22 -11 2 -19 9
-18 15 2 8 -7 9 -30 2 -17 -5 -33 -9 -34 -9 -1 0 0 7 3 15 4 8 13 15 21 15 8
0 12 4 8 9 -3 6 3 15 12 21 16 10 15 10 -4 5 -13 -4 -23 -2 -23 4 0 6 -7 8
-15 5 -8 -4 -23 -3 -32 0 -15 6 -13 10 12 31 17 13 35 25 40 25 12 1 55 35 55
44 0 3 -11 0 -25 -6 -14 -6 -25 -14 -25 -17 0 -3 -11 -7 -25 -7 l-25 -2 27 21
c45 34 46 35 13 31 -38 -5 -58 5 -39 17 10 6 8 9 -8 9 -12 0 -25 -4 -28 -10
-3 -5 -1 -10 5 -10 6 0 8 -4 5 -10 -3 -5 -1 -10 6 -10 7 0 10 -2 8 -5 -9 -8
-49 7 -43 17 4 7 0 7 -12 0 -11 -5 -32 -12 -49 -16 -28 -6 -27 -5 9 16 22 13
41 30 43 38 3 11 1 11 -10 -2 -8 -10 -17 -18 -21 -18 -3 0 -6 8 -6 18 0 13 -2
14 -9 3 -5 -8 -14 -10 -21 -6 -9 6 -8 10 5 18 14 8 15 11 4 18 -11 7 -11 9 2
9 9 0 16 7 16 15 0 8 -4 15 -7 15 -4 0 -13 -7 -20 -15 -13 -16 -31 -20 -29 -7
4 21 -2 34 -14 29 -8 -3 -20 -1 -28 5 -11 8 -11 9 3 5 10 -4 19 1 24 11 11 25
13 72 3 66 -5 -3 -9 -11 -9 -19 0 -19 -28 -27 -52 -14 -11 6 -26 8 -34 5 -8
-3 -14 -1 -14 3 0 12 -43 1 -52 -12 -4 -7 -12 -6 -22 2 -13 11 -16 8 -24 -21
-5 -21 -20 -40 -40 -53 -27 -17 -31 -26 -32 -62 0 -43 22 -103 62 -163 18 -28
19 -32 4 -20 -10 8 -30 33 -44 55 -21 32 -26 53 -26 110 -1 39 2 85 6 103 5
19 4 31 -1 27 -9 -5 -5 94 4 103 2 2 7 -13 10 -34 4 -22 8 -45 10 -51 5 -16
25 -17 25 -2 0 5 -6 7 -12 4 -7 -4 -6 0 3 7 21 17 30 88 12 88 -8 0 -16 8 -20
18 -12 33 -25 44 -36 30 -6 -9 -7 -8 -3 5 9 27 -2 39 -23 27 -12 -6 -23 -5
-34 3 -14 11 -14 13 1 27 14 13 15 12 9 -3 -7 -19 8 -33 19 -16 10 17 -47 66
-93 78 -49 14 -63 13 -93 -4z m45 -43 c1 -20 -3 -43 -8 -49 -6 -9 -5 -13 2
-13 7 0 9 -9 6 -22 -3 -13 -7 -33 -8 -45 -2 -31 -16 -18 -16 15 0 15 -1 45 -3
67 -4 41 10 101 20 90 4 -3 7 -23 7 -43z m147 -152 c-5 -65 -22 -65 -22 0 0
33 4 50 13 50 8 0 11 -15 9 -50z m38 40 c0 -5 -2 -10 -4 -10 -3 0 -8 5 -11 10
-3 6 -1 10 4 10 6 0 11 -4 11 -10z m27 -52 c-3 -8 -6 -5 -6 6 -1 11 2 17 5 13
3 -3 4 -12 1 -19z m125 -63 c0 -5 -5 -11 -11 -13 -6 -2 -11 4 -11 13 0 9 5 15
11 13 6 -2 11 -8 11 -13z m118 1 c0 -2 -7 -7 -16 -10 -8 -3 -12 -2 -9 4 6 10
25 14 25 6z m10 -96 c0 -5 -4 -10 -10 -10 -5 0 -10 5 -10 10 0 6 5 10 10 10 6
0 10 -4 10 -10z m20 -40 c0 -5 -5 -10 -11 -10 -5 0 -7 5 -4 10 3 6 8 10 11 10
2 0 4 -4 4 -10z"/>
<path d="M3681 5969 c-33 -32 -36 -50 -10 -57 12 -3 12 -2 0 6 -16 11 -6 32
15 32 8 0 13 4 9 9 -3 6 3 14 12 20 10 5 15 12 12 16 -4 3 -21 -8 -38 -26z"/>
<path d="M3815 5900 c-3 -5 -2 -10 4 -10 5 0 13 5 16 10 3 6 2 10 -4 10 -5 0
-13 -4 -16 -10z"/>
<path d="M2493 5892 c-6 -4 -14 -21 -18 -37 l-6 -30 20 24 c12 13 21 29 21 37
0 16 -1 16 -17 6z"/>
<path d="M3607 5853 c-4 -3 -7 -11 -7 -17 0 -6 5 -5 12 2 6 6 9 14 7 17 -3 3
-9 2 -12 -2z"/>
<path d="M2837 5662 c-9 -10 -16 -26 -15 -37 0 -11 -3 -28 -7 -37 -13 -33 24
-20 45 15 36 58 18 104 -23 59z"/>
<path d="M4145 5670 c-11 -4 -24 -5 -30 -2 -6 3 -6 1 0 -6 7 -7 21 -9 40 -4
16 5 25 11 20 14 -6 3 -19 2 -30 -2z"/>
<path d="M3516 5593 c-7 -18 20 -48 29 -33 3 5 1 10 -4 10 -21 0 -11 19 12 22
20 3 20 4 -5 9 -18 4 -29 1 -32 -8z"/>
<path d="M3570 5570 c0 -5 5 -10 11 -10 5 0 7 5 4 10 -3 6 -8 10 -11 10 -2 0
-4 -4 -4 -10z"/>
<path d="M2490 5510 c-13 -8 -12 -10 3 -10 9 0 17 5 17 10 0 12 -1 12 -20 0z"/>
<path d="M2328 5483 c7 -3 16 -2 19 1 4 3 -2 6 -13 5 -11 0 -14 -3 -6 -6z"/>
<path d="M2420 5229 c-227 -16 -430 -60 -608 -131 -110 -44 -126 -57 -130
-100 -3 -45 11 -77 36 -77 9 -1 30 -2 47 -3 27 -3 31 0 39 37 17 82 41 111 53
64 7 -26 50 -44 68 -29 10 8 15 6 20 -10 5 -17 40 -40 60 -40 12 0 46 78 42
97 -3 18 0 23 12 22 31 -3 41 1 41 15 0 8 6 17 13 19 9 4 9 6 0 6 -15 1 30 51
46 51 6 0 11 -17 11 -39 0 -60 41 -78 68 -31 9 15 30 35 48 45 18 9 35 27 38
39 3 13 17 28 31 34 29 13 75 16 75 5 4 -72 12 -128 21 -144 6 -12 8 -31 5
-44 -4 -17 -1 -25 13 -30 26 -8 51 4 51 26 0 13 7 19 24 19 17 0 30 11 45 36
16 27 26 34 39 29 23 -9 22 -9 60 0 22 5 32 13 32 26 0 11 9 28 20 39 12 12
18 25 15 30 -4 6 4 10 17 10 18 0 20 -2 8 -10 -13 -8 -12 -10 3 -10 13 0 17
-8 17 -35 0 -53 29 -115 58 -126 20 -8 34 -6 59 8 18 10 33 23 33 30 0 20 47
27 65 9 17 -17 45 -11 45 9 0 7 7 15 15 19 8 3 15 12 15 21 0 8 9 15 20 15 11
0 20 4 20 10 0 6 9 6 24 0 13 -5 32 -7 42 -6 11 2 13 1 7 -1 -17 -6 -16 -23 1
-23 9 0 16 -18 20 -54 8 -58 -1 -126 -15 -126 -5 0 -9 -36 -9 -80 l0 -80 155
0 155 0 0 40 c0 22 -4 40 -10 40 -5 0 -12 16 -16 35 l-6 35 -92 1 c-50 1 -81
4 -68 6 26 5 29 18 6 31 -14 8 -14 13 -3 33 l12 24 8 -27 c12 -44 31 -56 96
-60 55 -3 60 -2 56 17 -4 18 -3 18 7 3 15 -24 36 -23 43 2 6 23 39 27 56 6 9
-10 8 -15 -3 -19 -8 -3 -17 -1 -20 6 -3 8 -5 6 -5 -3 -1 -8 8 -21 19 -28 11
-7 20 -18 20 -25 1 -6 12 -25 25 -42 23 -28 30 -30 96 -32 39 -1 74 -5 77 -8
4 -3 5 -25 4 -48 -2 -31 0 -38 7 -27 7 10 11 11 11 3 0 -12 35 -87 68 -148 11
-18 24 -29 34 -27 9 2 23 -7 32 -20 14 -19 18 -21 26 -8 5 8 12 11 17 7 4 -5
1 -12 -6 -16 -17 -11 -5 -32 14 -24 9 3 15 -1 15 -8 1 -25 57 -78 77 -73 13 4
21 -3 30 -25 13 -35 43 -42 43 -11 0 12 10 25 23 30 l22 9 -22 6 c-29 9 -74
77 -63 95 7 12 12 12 27 -2 34 -30 59 -31 71 -3 6 14 16 25 22 25 13 0 13 -27
0 -35 -6 -4 -8 -14 -5 -24 3 -9 8 -43 11 -75 4 -52 3 -57 -13 -54 -10 2 -18
10 -18 18 -1 27 -19 25 -35 -3 -14 -27 -14 -29 13 -48 15 -12 27 -26 27 -33 0
-7 10 -24 23 -38 24 -25 53 -102 50 -128 -2 -10 0 -10 3 -2 14 30 20 6 20 -72
-1 -94 -14 -120 -67 -131 -16 -4 -31 -11 -34 -16 -9 -13 39 -11 71 3 23 11 28
10 40 -7 11 -15 11 -21 2 -26 -7 -5 -9 -11 -4 -16 4 -4 32 19 61 52 52 57 54
59 55 32 0 -17 -10 -39 -26 -55 -14 -15 -34 -46 -45 -69 -17 -35 -19 -47 -9
-82 6 -22 15 -43 20 -46 5 -3 7 -12 4 -19 -6 -15 8 -99 36 -216 33 -137 50
-232 50 -275 0 -22 5 -47 10 -55 5 -8 10 -11 10 -6 0 5 7 3 15 -4 8 -7 15 -9
15 -6 0 4 9 2 20 -4 15 -8 20 -21 20 -50 0 -34 4 -42 30 -55 17 -9 30 -20 30
-25 0 -5 12 -5 30 0 17 5 33 9 36 9 3 -1 9 3 12 7 4 4 1 3 -7 -1 -11 -6 -13
-4 -8 9 4 10 7 20 7 22 0 3 4 3 9 0 5 -3 21 19 35 50 103 218 115 611 21 722
-13 16 -22 32 -19 35 3 3 -2 4 -12 4 -9 -1 -19 4 -21 11 -3 8 1 10 14 5 10 -4
5 5 -12 19 -17 14 -42 27 -55 28 -46 4 -71 0 -65 -10 3 -5 0 -7 -8 -4 -20 7
-58 -11 -94 -45 -18 -17 -34 -31 -36 -31 -3 0 -4 18 -3 40 0 22 4 40 7 40 4 0
5 23 3 50 -2 32 0 49 6 45 6 -3 10 -2 10 4 0 5 -4 13 -10 16 -17 10 -11 25 10
25 11 0 20 -4 20 -10 0 -5 8 -10 18 -10 13 1 10 6 -13 25 -16 14 -24 25 -17
25 9 0 7 8 -5 27 -19 29 -8 27 30 -5 23 -20 22 -4 -1 17 -25 22 -66 91 -58 98
3 4 6 2 6 -4 0 -6 12 -19 28 -29 23 -15 25 -15 13 -1 -9 12 -10 17 -2 17 7 0
9 5 5 11 -5 8 -9 8 -14 -1 -5 -9 -10 -5 -16 11 -4 13 -7 28 -6 32 1 5 -2 6 -8
2 -6 -3 -7 -11 -4 -17 5 -7 2 -8 -5 -4 -7 5 -10 11 -7 14 3 3 0 12 -7 20 -10
13 -9 15 5 9 19 -7 34 8 18 18 -5 3 -10 13 -10 21 0 8 4 13 8 10 12 -7 7 36
-8 66 -7 15 -16 26 -19 23 -4 -2 -7 4 -8 13 -9 124 -187 288 -381 353 -39 13
-91 41 -127 68 -55 43 -92 68 -170 116 -44 28 -262 135 -273 135 -5 0 -42 13
-81 30 -150 61 -411 113 -666 130 -146 10 -155 10 -315 -1z m254 -46 c-22 -16
-28 -11 -19 17 6 17 9 19 22 9 13 -11 13 -14 -3 -26z m-14 -33 c0 -5 -4 -10
-10 -10 -5 0 -10 5 -10 10 0 6 5 10 10 10 6 0 10 -4 10 -10z m622 -112 c5
-116 6 -113 -20 -113 -22 0 -23 3 -17 35 3 19 9 54 12 78 3 23 10 42 14 42 5
0 10 -19 11 -42z m108 -44 c0 -21 -4 -33 -10 -29 -5 3 -10 19 -10 36 0 16 5
29 10 29 6 0 10 -16 10 -36z m124 24 c-5 -7 -1 -9 9 -5 11 4 14 2 11 -7 -4
-11 -10 -11 -30 -2 -29 13 -31 21 -4 23 13 1 18 -2 14 -9z m649 -404 c-4 -12
-8 -13 -14 -3 -9 15 -2 32 11 24 5 -3 6 -13 3 -21z m53 -81 c-11 -11 -19 6
-11 24 8 17 8 17 12 0 3 -10 2 -21 -1 -24z m229 -243 c3 -5 1 -10 -4 -10 -6 0
-11 5 -11 10 0 6 2 10 4 10 3 0 8 -4 11 -10z m-155 -20 c0 -5 -5 -10 -11 -10
-5 0 -7 5 -4 10 3 6 8 10 11 10 2 0 4 -4 4 -10z m180 -230 c0 -5 -5 -10 -11
-10 -5 0 -7 5 -4 10 3 6 8 10 11 10 2 0 4 -4 4 -10z m238 -173 c7 -5 9 -13 6
-19 -4 -6 -10 -6 -17 1 -6 6 -19 11 -30 11 -10 0 -15 4 -12 10 7 11 33 9 53
-3z m-105 -54 c-14 -35 -50 -93 -55 -88 -9 10 19 78 38 92 23 17 25 16 17 -4z
m-68 -142 c-3 -12 -13 -21 -21 -21 -12 0 -12 4 3 24 21 28 28 26 18 -3z m139
-166 c15 -23 35 -134 50 -277 5 -46 3 -58 -8 -58 -8 0 -16 -3 -19 -7 -2 -5 -3
-3 -1 3 4 21 -26 280 -36 302 -10 22 -14 62 -6 62 2 0 11 -11 20 -25z"/>
<path d="M4133 5175 c0 -8 4 -12 9 -9 5 3 6 10 3 15 -9 13 -12 11 -12 -6z"/>
<path d="M3857 5163 c-11 -10 -8 -61 3 -68 6 -4 8 -10 5 -15 -7 -11 52 -60 72
-60 12 0 11 4 -6 19 -16 14 -18 21 -9 24 10 4 10 6 1 6 -7 1 -13 7 -13 15 0 8
-5 18 -12 22 -8 5 -9 2 -5 -9 3 -10 3 -17 -2 -17 -29 0 -40 76 -12 83 14 4 14
5 0 6 -9 0 -19 -2 -22 -6z"/>
<path d="M3935 5120 c3 -5 8 -10 11 -10 2 0 4 5 4 10 0 6 -5 10 -11 10 -5 0
-7 -4 -4 -10z"/>
<path d="M3175 5080 c-7 -12 2 -30 16 -30 5 0 9 9 9 20 0 21 -15 27 -25 10z"/>
<path d="M3945 5050 c3 -5 8 -10 11 -10 2 0 4 5 4 10 0 6 -5 10 -11 10 -5 0
-7 -4 -4 -10z"/>
<path d="M3130 4970 c0 -35 3 -40 23 -40 12 0 30 7 39 14 27 20 3 66 -34 66
-26 0 -28 -3 -28 -40z"/>
<path d="M4322 4937 c-11 -13 -10 -16 8 -22 25 -8 49 8 29 20 -8 5 -10 4 -5
-3 4 -7 3 -12 -3 -12 -5 0 -11 7 -13 17 -3 15 -4 15 -16 0z"/>
<path d="M2874 4900 c-21 -8 -37 -51 -25 -67 3 -4 30 -8 59 -8 48 0 55 3 70
28 16 27 16 29 -2 43 -22 15 -69 18 -102 4z"/>
<path d="M4420 4880 c0 -5 5 -10 10 -10 6 0 10 5 10 10 0 6 -4 10 -10 10 -5 0
-10 -4 -10 -10z"/>
<path d="M4330 4862 c0 -4 9 -8 19 -8 11 0 17 4 15 8 -3 4 -12 8 -20 8 -8 0
-14 -4 -14 -8z"/>
<path d="M3108 4763 c12 -2 32 -2 45 0 12 2 2 4 -23 4 -25 0 -35 -2 -22 -4z"/>
<path d="M3368 4683 c23 -2 61 -2 85 0 23 2 4 4 -43 4 -47 0 -66 -2 -42 -4z"/>
<path d="M1157 4431 c9 -11 21 -17 26 -14 6 3 2 12 -8 20 -27 19 -37 16 -18
-6z"/>
<path d="M1131 4386 c-14 -15 -19 -26 -12 -31 6 -3 11 -2 11 4 0 5 7 17 16 26
9 9 14 18 12 20 -3 3 -15 -6 -27 -19z"/>
<path d="M1076 4285 c-8 -8 -19 -15 -25 -15 -6 0 -11 -4 -11 -10 0 -19 28 -10
44 15 18 28 15 33 -8 10z"/>
<path d="M3246 4264 c-4 -10 -2 -13 7 -7 18 11 38 13 31 2 -3 -5 -9 -7 -14 -4
-5 3 -11 1 -14 -4 -9 -13 -199 -3 -223 12 -13 8 -254 0 -262 -9 -2 -2 16 -5
40 -6 85 -3 -87 -18 -268 -24 -146 -5 -173 -8 -173 -21 0 -10 -6 -13 -16 -9
-9 3 -19 6 -22 7 -4 0 2 4 13 9 14 6 -4 9 -60 12 -139 5 -196 0 -215 -17 -14
-13 -19 -13 -24 -3 -3 7 -3 1 0 -14 7 -34 -12 -71 -34 -64 -22 7 -49 -9 -33
-18 18 -12 -10 -32 -54 -40 -74 -13 -167 -38 -193 -52 -15 -8 -35 -14 -45 -14
-23 0 -45 21 -39 38 2 7 -5 12 -17 12 -12 0 -21 5 -21 10 0 6 -10 10 -22 9
l-23 0 23 -9 c29 -12 28 -28 -3 -40 -14 -5 -25 -14 -25 -20 0 -6 4 -8 10 -5 6
4 7 -1 3 -10 -3 -10 0 -21 8 -26 11 -7 9 -9 -6 -9 -11 0 -27 -5 -35 -10 -11
-8 -8 -9 12 -4 14 3 36 1 48 -6 20 -11 18 -13 -32 -38 -43 -22 -49 -28 -30
-30 24 -4 29 -17 10 -26 -7 -3 1 -3 17 0 27 5 28 4 13 -9 -23 -19 -23 -23 5
-32 l22 -7 -25 -8 -25 -8 28 -1 c15 -1 27 3 27 9 0 15 33 -2 53 -27 10 -13 23
-21 28 -17 15 9 43 -4 57 -27 13 -21 13 -21 -25 -15 -33 5 -35 4 -15 -6 12 -6
22 -19 22 -28 0 -18 -12 -22 -115 -36 -27 -3 -117 -21 -199 -40 -82 -19 -186
-39 -231 -46 l-81 -11 -2 -63 c-3 -61 -3 -62 29 -73 18 -6 39 -11 49 -11 9 0
21 -12 27 -27 l11 -28 1 33 c2 58 26 32 29 -31 3 -62 17 -72 51 -38 12 12 16
23 10 32 -5 8 -9 19 -9 24 0 6 5 3 10 -5 7 -11 10 -6 11 20 1 35 2 48 14 105
6 27 5 28 -8 13 -15 -19 -27 -23 -27 -10 0 10 49 62 59 62 5 0 7 -10 3 -22 -5
-20 -2 -19 39 9 44 30 74 36 278 62 67 8 101 5 101 -10 0 -5 -9 -9 -21 -9 -13
0 -18 -4 -13 -11 5 -8 -1 -10 -19 -7 -16 3 -31 0 -38 -8 -6 -8 -19 -14 -28
-14 -24 0 -176 -79 -175 -90 1 -6 2 -20 3 -31 1 -21 5 -22 69 -16 82 8 106 2
127 -29 15 -23 15 -26 -5 -51 -11 -14 -20 -31 -20 -38 0 -7 -7 -15 -15 -19
-15 -5 -21 -35 -7 -37 4 0 39 -3 77 -5 39 -3 95 -9 125 -13 43 -7 71 -5 125 9
39 10 93 20 121 23 50 6 51 5 46 -19 -7 -36 30 -65 68 -54 67 19 140 -10 140
-56 0 -27 31 -13 47 21 9 20 22 34 27 32 21 -7 35 29 36 91 0 34 -4 62 -9 62
-5 0 -7 -9 -4 -19 3 -13 -4 -27 -21 -42 -14 -12 -26 -29 -26 -36 0 -7 -9 -13
-20 -13 -11 0 -20 4 -20 8 0 11 31 38 49 44 8 2 15 16 15 31 1 19 -2 26 -11
23 -7 -3 -13 2 -13 10 0 12 7 15 25 12 14 -3 25 -1 25 4 0 5 4 7 9 4 14 -9 0
37 -17 56 -8 10 -12 25 -8 34 3 9 1 23 -5 31 -17 20 -3 28 16 9 10 -9 14 -23
11 -31 -3 -8 0 -17 5 -21 6 -3 17 -20 25 -38 13 -30 13 -30 14 -5 0 14 7 34
15 45 8 10 15 30 15 44 0 39 46 54 164 54 l99 1 11 -34 c7 -18 20 -39 30 -46
25 -18 13 -50 -19 -51 -16 -1 -25 3 -25 13 0 11 -7 7 -20 -10 -11 -14 -30 -29
-41 -32 -19 -6 -19 -7 5 -30 15 -13 26 -30 26 -37 0 -6 13 -26 29 -43 27 -29
45 -59 91 -155 30 -63 58 -110 86 -143 16 -19 24 -41 24 -67 0 -22 7 -45 16
-55 15 -15 18 -15 34 0 15 13 20 14 27 3 4 -7 27 -22 50 -33 32 -16 43 -27 47
-51 8 -37 -11 -94 -30 -94 -8 0 -17 -7 -20 -15 -12 -31 -65 -7 -57 26 3 11 -4
18 -25 22 -16 3 -52 25 -81 47 -47 37 -52 45 -46 69 22 87 13 120 -24 87 -10
-9 -26 -16 -37 -16 -27 0 -39 -10 -61 -50 -15 -27 -30 -38 -67 -49 -39 -12
-48 -20 -53 -44 -4 -21 -10 -27 -24 -24 -10 3 -23 0 -28 -7 -6 -7 -33 -18 -61
-26 -28 -8 -53 -18 -56 -22 -3 -4 -13 -8 -22 -8 -15 0 -70 -53 -102 -99 -43
-63 -120 12 -135 132 -8 62 6 107 32 107 7 0 13 5 13 10 0 14 -8 13 -54 -10
-106 -51 -409 -67 -584 -31 -51 11 -101 26 -110 33 -12 10 -14 10 -8 0 19 -32
158 -68 281 -73 39 -2 39 -2 6 -6 -18 -3 -43 -13 -54 -23 -22 -22 -45 -16 -26
6 9 11 7 14 -15 14 -28 0 -35 -24 -16 -59 7 -14 5 -23 -10 -36 -15 -13 -17
-22 -10 -36 15 -26 12 -49 -5 -49 -25 0 -17 -40 10 -50 15 -6 25 -17 25 -29 0
-19 -21 -43 -36 -40 -23 4 -34 -3 -34 -21 0 -21 27 -40 59 -40 32 0 25 -28 -9
-35 -16 -4 -30 -10 -30 -13 1 -17 30 -43 40 -37 7 4 14 -2 17 -14 3 -12 10
-21 15 -21 5 0 8 -6 5 -12 -2 -7 9 -21 25 -30 18 -12 28 -26 28 -42 0 -14 7
-31 15 -40 19 -18 19 -23 0 -29 -11 -3 -10 -4 2 -3 14 1 18 10 17 34 -1 18 2
32 7 32 8 0 13 -18 12 -47 -1 -7 9 -13 21 -13 12 0 28 -6 36 -12 12 -11 12
-10 2 3 -6 9 -9 19 -6 22 3 3 3 11 -1 17 -5 8 -11 8 -21 -1 -11 -9 -14 -7 -14
10 0 26 21 27 61 4 34 -20 36 -28 12 -42 -16 -9 -14 -10 9 -11 22 0 25 -4 21
-22 -6 -31 -24 -69 -41 -90 -9 -11 -10 -18 -3 -23 13 -8 15 -75 2 -75 -5 0 -9
-14 -8 -31 2 -37 32 -63 46 -40 7 10 13 11 30 2 11 -7 21 -16 21 -21 0 -14
-18 -12 -23 3 -2 6 -8 9 -12 5 -4 -4 -3 -14 3 -21 9 -10 8 -18 -4 -33 -11 -14
-17 -15 -20 -6 -7 16 -24 6 -24 -15 0 -10 6 -13 16 -9 10 4 14 1 12 -6 -3 -7
-22 -16 -43 -20 -22 -5 -42 -13 -46 -19 -10 -17 2 -59 17 -59 17 0 18 -12 2
-28 -9 -9 -8 -12 5 -12 9 0 21 9 27 21 13 23 55 23 78 1 8 -7 18 -10 23 -7 5
4 17 1 26 -4 10 -6 12 -11 6 -11 -8 0 -13 -13 -13 -30 0 -38 -18 -40 -22 -3
-2 17 -9 28 -18 28 -8 0 -19 6 -23 13 -4 6 -15 12 -23 12 -12 0 -14 -12 -12
-62 l3 -62 35 -8 c29 -6 37 -4 49 12 7 11 22 20 34 20 17 0 19 5 15 45 -6 49
-6 49 55 46 28 -2 37 1 37 13 0 9 8 16 19 16 19 0 34 22 35 49 1 8 6 16 12 18
17 6 13 -60 -4 -79 -11 -13 -12 -18 -2 -18 8 0 10 -8 6 -25 -4 -14 -2 -25 4
-25 5 0 10 16 10 36 0 19 7 42 15 50 8 9 15 28 15 44 0 16 5 32 10 35 6 3 10
-3 10 -14 0 -22 14 -28 25 -11 8 13 35 -6 35 -25 0 -7 11 -24 24 -38 21 -22
31 -26 58 -21 18 4 37 11 43 15 13 12 55 11 55 -1 0 -13 46 -13 70 0 15 8 31
5 66 -11 62 -30 66 -45 19 -86 -40 -34 -53 -53 -80 -115 -9 -20 -32 -48 -50
-62 -27 -21 -36 -38 -47 -88 -13 -55 -17 -63 -44 -70 -54 -15 -189 -14 -217 1
-22 12 -29 12 -42 1 -15 -12 -15 -21 -5 -87 0 -2 10 -3 23 -3 27 0 67 -42 67
-70 0 -24 0 -24 -36 -5 -16 8 -36 15 -44 15 -21 0 -140 114 -140 133 0 9 -9
19 -20 22 -11 3 -20 10 -20 15 0 5 -44 45 -97 90 -127 105 -351 326 -386 379
-16 23 -34 44 -42 48 -8 3 -15 9 -15 15 0 5 -17 30 -39 56 -21 26 -40 52 -42
57 -2 6 -20 35 -40 65 -20 30 -55 88 -78 128 -23 39 -45 72 -50 72 -4 0 -12
-12 -17 -27 -5 -16 -13 -23 -16 -17 -4 6 0 23 8 39 8 15 12 37 9 49 -28 102
-62 197 -81 226 -13 19 -26 47 -29 63 -11 41 -32 30 -27 -14 1 -3 -10 -4 -24
-1 -19 3 -32 -2 -50 -21 -13 -14 -24 -31 -24 -36 0 -6 -7 -8 -15 -4 -24 9 -44
-26 -38 -64 3 -18 2 -33 -3 -33 -5 0 -10 -34 -11 -76 -2 -41 -7 -93 -13 -114
-21 -78 -6 -401 22 -473 6 -15 8 -30 5 -33 -3 -3 -9 10 -15 28 -54 185 -70
281 -77 475 -7 156 -16 172 -60 106 -13 -21 -38 -56 -55 -78 -16 -22 -33 -48
-36 -57 -4 -10 -10 -18 -15 -18 -5 0 -18 -21 -30 -47 -41 -95 -53 -113 -83
-133 -17 -10 -32 -15 -34 -10 -5 15 -35 12 -60 -6 -12 -8 -22 -12 -22 -7 0 4
-7 -3 -16 -15 -8 -12 -13 -26 -9 -31 3 -5 1 -12 -5 -16 -5 -3 -8 -35 -7 -70 3
-51 10 -74 34 -114 33 -52 54 -104 35 -86 -20 19 -102 150 -102 163 0 16 -8
15 -26 -3 -9 -8 -12 -19 -9 -25 3 -6 -4 -10 -18 -10 -29 0 -120 -36 -162 -65
-17 -11 -61 -36 -98 -55 l-67 -35 0 -707 0 -708 1438 0 1437 1 -39 20 c-21 12
-48 30 -60 41 -28 26 -83 54 -126 63 -30 7 -32 9 -15 16 19 7 18 8 -4 8 -17 1
-21 5 -17 17 3 8 2 12 -4 9 -5 -3 -15 -1 -22 5 -7 6 -35 24 -62 41 -26 16 -46
32 -44 34 5 5 91 -26 163 -59 68 -32 229 -86 253 -86 37 0 215 -52 279 -81
l62 -29 1226 0 1225 0 -1 792 c0 512 -4 781 -10 760 -14 -48 -19 -39 -14 28 2
33 -1 74 -7 92 -23 67 -106 147 -141 135 -8 -2 -11 -27 -10 -73 l2 -69 -14 67
c-7 37 -18 75 -24 85 -9 15 -11 12 -11 -17 -1 -19 -6 -44 -11 -55 -6 -14 -8 1
-5 48 4 77 -21 196 -51 230 -18 23 -36 41 -113 122 -53 54 -141 125 -187 149
-32 16 -58 22 -37 8 17 -11 70 -120 93 -191 28 -87 48 -266 33 -306 -10 -28
-10 -25 -11 30 -1 81 -27 234 -50 301 -41 115 -138 239 -261 330 -86 65 -91
68 -188 115 -74 36 -87 39 -114 30 -49 -17 -57 -12 -15 10 21 11 37 27 37 37
-1 16 -1 16 -14 0 -17 -23 -22 -23 -29 1 -3 13 1 21 12 24 10 3 8 5 -7 6 -13
0 -20 5 -17 11 3 5 2 17 -3 26 -8 14 -10 12 -14 -10 -3 -14 -1 -26 3 -26 5 0
9 -7 9 -15 0 -16 -21 -16 -32 0 -4 5 -14 -6 -22 -25 -11 -26 -11 -37 -3 -42 9
-6 9 -8 0 -8 -7 0 -13 -12 -13 -27 0 -23 -17 -92 -44 -188 -21 -74 -51 -168
-63 -200 -26 -67 -30 -78 -58 -139 -22 -48 -25 -63 -16 -78 9 -14 9 -28 0 -58
-11 -37 -39 -75 -39 -53 0 5 -9 9 -20 10 -18 2 -20 -4 -20 -76 0 -91 -31 -227
-66 -288 -33 -56 -181 -205 -221 -222 -18 -7 -33 -17 -33 -22 0 -5 -5 -9 -12
-9 -6 0 -18 -7 -27 -15 -46 -43 -82 -65 -107 -65 -33 -1 -74 -31 -74 -54 0
-17 -43 -22 -87 -10 -44 12 -38 109 11 163 l21 24 -50 -8 c-56 -8 -75 -19 -75
-45 0 -11 -18 -29 -43 -43 -41 -24 -45 -25 -96 -11 -57 14 -81 29 -81 49 0 15
-32 45 -49 45 -18 0 -91 76 -91 95 0 8 -12 29 -27 46 -22 24 -33 29 -55 25
-70 -14 -68 27 3 59 l41 19 -25 22 -26 22 39 4 c21 2 37 1 35 -2 -2 -3 13 -4
33 -2 29 3 43 -2 65 -22 20 -19 39 -26 66 -26 23 0 48 -8 64 -20 36 -29 67
-27 67 5 0 20 5 25 25 25 30 0 76 -22 95 -44 9 -12 16 -14 26 -5 8 6 25 8 39
5 14 -4 25 -2 25 3 0 17 35 24 134 26 83 2 101 5 113 20 19 26 16 45 -6 45
-34 0 -51 12 -51 35 0 13 5 27 10 30 6 3 10 1 10 -4 0 -6 9 -11 20 -11 13 0
20 7 20 20 0 11 -7 20 -16 20 -11 0 -14 6 -9 20 4 13 2 20 -7 21 -7 0 -3 4 10
9 12 5 22 18 22 29 0 11 5 32 12 46 9 21 8 32 -5 60 -9 19 -24 35 -33 35 -13
0 -14 3 -4 15 9 10 9 15 1 15 -6 0 -11 9 -11 20 0 13 5 18 15 14 10 -4 15 0
15 15 0 12 -6 21 -13 21 -8 0 -13 15 -14 38 -1 28 -10 48 -31 70 -17 18 -35
32 -41 32 -6 0 -11 5 -11 11 0 8 17 10 50 7 67 -7 74 4 72 105 -2 58 1 78 8
67 9 -13 11 -13 20 0 5 8 10 27 10 43 0 15 5 27 11 27 8 0 10 -12 6 -35 -6
-34 7 -56 23 -39 15 17 18 104 4 119 -8 7 -14 24 -14 37 0 13 -7 33 -15 44 -8
10 -15 26 -15 35 0 9 -11 20 -25 23 -18 5 -25 13 -25 31 0 14 6 25 13 25 22 0
43 48 30 69 -7 11 -9 42 -6 80 6 68 -1 80 -62 104 l-30 12 30 6 c22 5 19 6
-12 3 -24 -2 -51 -8 -60 -13 -52 -26 -333 -56 -443 -46 -132 11 -209 60 -297
187 -67 97 -118 216 -137 321 -15 77 -15 90 -1 131 13 37 13 49 3 65 -15 24
-13 26 30 34 25 5 32 3 32 -9 0 -8 -4 -13 -9 -9 -5 3 -13 0 -17 -6 -4 -8 -9
-7 -16 2 -7 10 -8 4 -3 -16 4 -16 11 -31 16 -33 5 -2 9 -17 9 -33 0 -17 4 -28
9 -25 13 8 44 -31 36 -45 -5 -7 -3 -10 6 -7 8 3 14 11 14 18 0 18 38 22 51 5
5 -7 19 -13 30 -12 10 1 18 -4 17 -10 -2 -7 -1 -13 1 -13 2 0 41 -9 87 -21 46
-12 89 -22 94 -24 6 -1 17 -5 25 -8 44 -16 83 -16 217 4 102 14 162 28 193 44
54 27 62 55 26 79 -15 9 -26 21 -26 26 0 17 45 34 104 40 83 7 95 29 42 76
-21 18 -54 36 -72 40 -30 5 -32 8 -22 29 6 13 20 25 32 27 17 2 15 6 -16 21
-44 21 -256 37 -266 20 -4 -7 -23 -8 -47 -4 -78 13 -5 23 200 28 124 3 215 1
240 -6 38 -10 38 -10 -20 -7 -33 3 -49 2 -35 -1 14 -3 31 -9 37 -15 7 -6 24
-8 37 -4 16 4 26 1 30 -9 3 -8 11 -15 18 -15 8 0 21 -15 30 -32 25 -50 32 -80
51 -228 l12 -95 3 80 c2 49 -1 81 -8 83 -5 2 -10 13 -10 25 0 20 2 20 24 -8
13 -16 27 -27 31 -23 4 4 8 34 9 68 0 33 6 60 11 60 6 -1 9 -14 7 -30 -2 -16
2 -38 8 -47 9 -14 10 -15 7 -2 -8 26 27 74 64 89 33 14 59 33 59 44 0 3 -6 3
-14 0 -15 -6 -30 63 -19 92 5 14 3 16 -13 9 -10 -4 -26 -7 -34 -7 -220 13
-300 19 -277 20 29 2 38 22 10 22 -15 0 -16 2 -3 10 12 8 13 11 1 19 -11 7
-11 9 0 13 9 3 9 6 -3 11 -12 4 -19 0 -23 -14 -8 -25 -25 -24 -32 2 -3 12 -11
18 -19 15 -8 -3 -14 -1 -14 4 0 5 8 11 18 13 15 4 15 5 -2 6 -12 1 -16 6 -12
16 3 9 0 15 -8 15 -22 0 -27 28 -8 40 14 8 12 9 -9 4 -15 -3 -30 -1 -34 5 -4
7 6 14 24 17 17 4 28 10 26 15 -3 4 7 9 22 11 16 2 27 8 25 16 -1 6 7 12 18
12 11 0 20 5 20 10 0 6 -8 10 -18 10 -11 0 -27 9 -37 20 -10 11 -14 20 -9 20
5 0 2 4 -6 10 -9 5 -17 5 -20 0 -3 -5 -21 4 -40 21 -19 16 -51 34 -71 39 -21
6 -41 20 -49 35 -8 14 -20 23 -27 21 -7 -3 -20 -3 -29 1 -12 4 -13 7 -3 14 28
17 -21 21 -60 5 -35 -13 -46 -14 -88 -2 -70 20 -179 20 -187 0z m-956 -64 c0
-13 -11 -13 -30 0 -12 8 -11 10 8 10 12 0 22 -4 22 -10z m505 0 c-3 -5 -28
-10 -56 -10 -27 0 -49 5 -49 10 0 6 25 10 56 10 34 0 53 -4 49 -10z m961 -165
c-8 -8 -21 -15 -28 -15 -8 1 -6 6 6 15 26 20 42 19 22 0z m71 9 c-3 -3 -12 -4
-19 -1 -8 3 -5 6 6 6 11 1 17 -2 13 -5z m-2182 -44 c4 -7 -3 -8 -22 -4 -38 9
-42 14 -10 14 14 0 29 -5 32 -10z m-15 -30 c0 -5 -9 -10 -20 -10 -11 0 -20 5
-20 10 0 6 9 10 20 10 11 0 20 -4 20 -10z m2120 6 c0 -3 -4 -8 -10 -11 -5 -3
-10 -1 -10 4 0 6 5 11 10 11 6 0 10 -2 10 -4z m-2133 -32 c-3 -3 -12 -4 -19
-1 -8 3 -5 6 6 6 11 1 17 -2 13 -5z m-10 -60 c-3 -3 -12 -4 -19 -1 -8 3 -5 6
6 6 11 1 17 -2 13 -5z m6 -31 c-7 -2 -21 -2 -30 0 -10 3 -4 5 12 5 17 0 24 -2
18 -5z m30 -20 c-7 -2 -19 -2 -25 0 -7 3 -2 5 12 5 14 0 19 -2 13 -5z m2214
-29 c-3 -3 -12 -4 -19 -1 -8 3 -5 6 6 6 11 1 17 -2 13 -5z m318 -84 c-3 -6
-15 -10 -26 -10 -11 0 -29 -5 -40 -10 -13 -7 -19 -7 -19 0 0 5 -9 10 -20 10
-11 0 -20 3 -20 8 0 4 30 8 66 9 41 2 63 -1 59 -7z m-113 -52 c-9 -9 -12 -7
-12 12 0 19 3 21 12 12 9 -9 9 -15 0 -24z m-2255 -24 c-3 -3 -12 -4 -19 -1 -8
3 -5 6 6 6 11 1 17 -2 13 -5z m-22 -40 c-82 -7 -151 -11 -153 -9 -2 2 16 6 40
9 23 3 54 7 68 10 14 2 63 3 110 3 73 0 64 -1 -65 -13z m320 6 c4 -7 -3 -8
-22 -4 -38 9 -42 14 -10 14 14 0 29 -5 32 -10z m705 -32 c0 -14 -6 -16 -32
-12 -31 6 -32 5 -14 -8 24 -19 13 -38 -22 -37 l-27 1 25 8 c44 14 -111 10
-165 -4 -49 -13 -70 -12 -61 3 5 8 116 29 181 34 25 2 16 4 -25 6 -82 2 -61
20 32 25 34 2 64 9 66 15 5 16 42 -11 42 -31z m-499 7 c49 -13 78 -29 68 -39
-2 -2 -22 2 -44 10 -22 7 -76 21 -119 29 -44 8 -82 18 -85 21 -9 10 121 -6
180 -21z m215 -27 c5 -7 3 -8 -6 -3 -7 4 -16 2 -21 -6 -7 -11 -9 -10 -9 4 0
19 25 23 36 5z m-1302 -87 c6 -10 -37 -31 -64 -31 -13 0 -20 7 -20 20 0 17 7
20 39 20 22 0 42 -4 45 -9z m61 -21 c2 -12 11 -27 18 -34 10 -7 12 -19 7 -36
-5 -14 -8 -18 -9 -9 -1 9 -8 22 -16 29 -8 7 -15 28 -15 48 0 38 8 39 15 2z
m495 12 c0 -13 -12 -22 -22 -16 -10 6 -1 24 13 24 5 0 9 -4 9 -8z m578 -143
c19 10 20 9 16 -14 -2 -14 0 -25 5 -25 6 0 8 -7 5 -15 -4 -8 -18 -15 -33 -15
-20 0 -23 -2 -11 -10 12 -7 12 -12 3 -21 -10 -10 -14 -9 -19 4 -9 25 -23 21
-17 -4 4 -12 2 -20 -3 -17 -5 2 -28 13 -51 24 -55 25 -57 44 -3 37 39 -5 40
-4 56 32 11 26 18 34 24 26 6 -10 12 -10 28 -2z m-14 -134 c4 -11 -2 -15 -26
-15 -30 0 -31 1 -12 15 24 18 31 18 38 0z m983 -719 c-2 -17 -2 -23 0 -13 3
13 15 17 53 17 47 0 49 -2 72 -42 13 -24 30 -43 37 -43 13 0 79 -79 80 -96 1
-6 -50 -14 -163 -26 -44 -4 -60 -2 -67 8 -6 10 -9 2 -9 -23 0 -32 -3 -38 -21
-38 -11 0 -29 5 -39 10 -16 9 -19 7 -17 -16 1 -16 -4 -29 -12 -32 -10 -3 -12
0 -8 11 4 10 0 13 -12 10 -13 -3 -16 -12 -13 -34 4 -24 1 -29 -17 -29 -14 0
-21 6 -21 20 0 12 -7 20 -17 20 -20 0 -116 34 -153 54 -64 34 -143 40 -255 19
-26 -5 -28 -4 -16 11 7 9 18 16 24 16 5 0 27 19 48 42 37 42 38 42 59 23 11
-10 18 -25 16 -32 -3 -7 -1 -13 4 -13 6 0 10 6 10 14 0 21 23 25 125 25 96 0
131 3 141 14 4 4 8 31 9 60 1 58 9 77 31 77 18 0 18 -29 -1 -50 -12 -13 -12
-22 0 -60 15 -49 18 -46 15 12 -1 23 5 44 14 54 9 8 16 25 16 37 1 21 1 21 15
3 8 -10 12 -23 9 -27 -3 -5 0 -9 5 -9 6 0 11 13 11 28 0 35 6 41 31 35 15 -4
19 -12 16 -37z m-787 -90 c0 -31 3 -34 46 -46 45 -13 104 -58 104 -80 0 -6
-12 -10 -27 -9 -49 5 -131 -13 -152 -32 -11 -11 -23 -19 -25 -19 -3 0 -34 -19
-68 -43 -64 -43 -155 -77 -195 -73 -12 1 -32 11 -43 21 -17 16 -24 17 -40 7
-11 -7 -27 -12 -35 -12 -26 0 -16 20 16 34 20 8 27 15 18 18 -12 4 -12 7 0 21
10 13 11 20 2 30 -8 11 -7 18 7 29 49 41 85 59 133 64 60 6 100 24 127 58 10
14 31 28 45 31 14 4 31 13 38 21 6 8 20 14 30 14 15 0 19 -7 19 -34z m-425
-236 c-3 -5 -10 -10 -16 -10 -5 0 -9 5 -9 10 0 6 7 10 16 10 8 0 12 -4 9 -10z
m863 -147 c-3 -24 -8 -28 -40 -31 -24 -2 -38 1 -38 8 0 7 -7 10 -15 6 -8 -3
-15 0 -15 7 0 7 9 13 20 13 11 0 20 -6 20 -12 0 -7 8 -10 20 -7 22 6 27 23 8
24 -7 0 -4 4 7 9 32 14 37 12 33 -17z m-398 7 c0 -5 -6 -10 -14 -10 -8 0 -18
5 -21 10 -3 6 3 10 14 10 12 0 21 -4 21 -10z m160 0 c0 -5 -5 -10 -11 -10 -5
0 -7 5 -4 10 3 6 8 10 11 10 2 0 4 -4 4 -10z m-1551 -52 c-37 -95 -68 -263
-68 -376 -1 -26 -1 -69 -1 -97 0 -27 -3 -72 -7 -100 l-7 -50 -6 60 c-6 58 3
300 13 340 2 11 7 43 11 70 4 28 13 64 21 80 8 17 23 51 34 78 27 64 36 60 10
-5z m1671 37 c0 -9 -9 -15 -25 -15 -26 0 -34 15 -12 23 23 10 37 7 37 -8z
m-355 -71 c10 3 15 -1 15 -12 0 -14 2 -14 9 -3 5 8 16 11 24 8 8 -3 20 0 26 6
8 8 11 6 11 -7 0 -15 3 -16 14 -7 10 8 16 9 21 2 11 -18 -41 -61 -74 -61 -17
0 -42 -11 -59 -25 -20 -17 -42 -25 -66 -25 -33 0 -39 -4 -52 -35 -12 -29 -20
-35 -43 -35 -16 0 -32 -6 -34 -12 -3 -7 -6 -3 -6 10 -1 22 -31 33 -31 11 0 -6
-7 -9 -15 -5 -9 3 -15 0 -15 -10 0 -8 -7 -17 -15 -20 -8 -4 -15 -13 -15 -21 0
-8 5 -11 13 -7 9 5 9 4 1 -6 -16 -16 -55 -4 -47 16 3 9 -2 14 -17 14 -15 0
-20 5 -17 14 3 7 1 18 -4 23 -14 14 27 72 48 67 31 -8 52 18 57 68 3 26 7 52
11 57 9 15 126 9 120 -6 -3 -10 0 -10 15 0 11 6 20 15 20 20 0 4 14 0 31 -8
31 -16 31 -16 24 7 l-7 23 20 -24 c13 -14 28 -21 37 -17z m35 26 c0 -5 -2 -10
-4 -10 -3 0 -8 5 -11 10 -3 6 -1 10 4 10 6 0 11 -4 11 -10z m445 -9 c3 -5 1
-12 -5 -16 -5 -3 -10 1 -10 9 0 18 6 21 15 7z m35 0 c0 -6 -4 -13 -10 -16 -5
-3 -10 1 -10 9 0 9 5 16 10 16 6 0 10 -4 10 -9z m-1007 -216 c-26 -19 -36 -7
-13 17 11 12 17 25 14 30 -3 4 -2 14 3 21 5 8 9 0 11 -21 2 -24 -2 -38 -15
-47z m133 -57 c1 -9 -5 -25 -13 -35 -8 -10 -11 -12 -7 -4 3 7 0 17 -7 22 -12
7 -12 9 0 9 8 0 11 6 7 16 -4 9 -1 14 6 12 6 -2 12 -11 14 -20z m-166 2 c0 -5
-5 -10 -11 -10 -5 0 -7 5 -4 10 3 6 8 10 11 10 2 0 4 -4 4 -10z m412 -22 c15
3 19 1 16 -9 -2 -8 -14 -15 -26 -17 -17 -3 -22 2 -21 20 0 13 3 18 5 12 3 -7
14 -9 26 -6z m-192 -15 c0 -5 -11 -13 -25 -20 -27 -12 -33 -5 -13 15 13 13 38
16 38 5z m-84 -52 c-13 -20 -26 -11 -26 16 0 25 1 26 16 11 9 -9 13 -21 10
-27z m2624 -25 c0 -7 9 -23 20 -36 23 -27 24 -43 5 -130 -8 -36 -14 -82 -15
-102 0 -48 -34 -139 -77 -206 -19 -30 -41 -72 -50 -95 -9 -23 -27 -56 -40 -73
-13 -17 -23 -34 -23 -38 0 -4 -11 -22 -25 -41 -14 -18 -33 -49 -43 -68 -9 -19
-63 -83 -119 -141 -57 -59 -110 -120 -118 -136 -16 -30 -49 -43 -39 -15 4 8
10 15 15 15 5 0 9 5 9 11 0 6 12 25 26 44 14 18 26 43 27 54 1 11 3 18 5 16 6
-5 92 121 92 135 0 5 5 10 10 10 6 0 9 3 8 8 -2 4 14 32 35 63 20 31 36 65 36
75 -1 11 -1 27 -1 38 2 16 4 17 19 5 15 -13 16 -11 10 12 -4 16 -1 38 7 54
l14 27 5 -23 c4 -22 4 -22 6 4 1 18 -4 27 -14 27 -14 0 -19 12 -16 33 0 4 -5
7 -11 7 -9 0 -9 3 1 9 12 8 13 15 4 34 -8 18 -7 57 6 160 10 75 20 140 24 143
3 4 3 -10 0 -30 -4 -24 -2 -36 6 -36 6 0 11 4 11 9 0 12 67 19 83 9 8 -5 7 -8
-5 -8 -10 0 -18 -7 -18 -16 0 -30 44 -12 55 24 5 17 13 32 17 32 4 0 8 10 8
22 0 12 4 35 10 52 5 17 12 44 15 59 5 27 25 29 25 3z m-3703 -18 c-3 -8 -6
-5 -6 6 -1 11 2 17 5 13 3 -3 4 -12 1 -19z m936 -51 c-3 -5 -10 -4 -15 1 -6 6
-7 16 -3 22 6 9 9 9 16 -1 4 -7 5 -17 2 -22z m2474 -19 c-3 -7 -5 -2 -5 12 0
14 2 19 5 13 2 -7 2 -19 0 -25z m43 -238 c0 -16 -4 -30 -10 -30 -5 0 -10 14
-10 30 0 17 5 30 10 30 6 0 10 -13 10 -30z m-20 -139 c0 -6 -4 -13 -10 -16 -5
-3 -10 1 -10 9 0 9 5 16 10 16 6 0 10 -4 10 -9z m10 -111 c0 -5 -4 -10 -10
-10 -5 0 -10 5 -10 10 0 6 5 10 10 10 6 0 10 -4 10 -10z m-412 -632 c-2 -6
-10 -14 -16 -16 -7 -2 -10 2 -6 12 7 18 28 22 22 4z"/>
<path d="M3252 2348 c2 -30 7 -43 18 -43 24 0 21 79 -3 83 -16 3 -18 -2 -15
-40z"/>
<path d="M3167 2199 c4 -13 8 -18 11 -10 2 7 -1 18 -6 23 -8 8 -9 4 -5 -13z"/>
<path d="M2305 1850 c-3 -5 -1 -10 4 -10 6 0 11 5 11 10 0 6 -2 10 -4 10 -3 0
-8 -4 -11 -10z"/>
<path d="M2275 1830 c3 -5 8 -10 11 -10 2 0 4 5 4 10 0 6 -5 10 -11 10 -5 0
-7 -4 -4 -10z"/>
<path d="M4546 1155 c-3 -9 -6 -24 -5 -33 0 -13 3 -11 11 5 10 21 12 22 25 5
12 -16 13 -15 11 8 -3 29 -32 39 -42 15z"/>
<path d="M4551 1054 c0 -11 3 -14 6 -6 3 7 2 16 -1 19 -3 4 -6 -2 -5 -13z"/>
<path d="M1015 4210 c4 -6 11 -8 16 -5 14 9 11 15 -7 15 -8 0 -12 -5 -9 -10z"/>
<path d="M1076 4195 c-3 -8 -12 -15 -20 -15 -10 0 -13 -6 -9 -16 5 -13 10 -11
29 12 26 30 28 34 15 34 -5 0 -11 -7 -15 -15z"/>
<path d="M3714 4203 c10 -3 28 -14 39 -24 11 -10 23 -17 25 -14 9 9 -43 44
-63 44 -19 -1 -19 -2 -1 -6z"/>
<path d="M1660 4055 c0 -8 7 -15 15 -15 8 0 15 7 15 15 0 8 -7 15 -15 15 -8 0
-15 -7 -15 -15z"/>
<path d="M3905 4010 c-8 -13 5 -13 25 0 13 8 13 10 -2 10 -9 0 -20 -4 -23 -10z"/>
<path d="M3833 4003 c9 -2 23 -2 30 0 6 3 -1 5 -18 5 -16 0 -22 -2 -12 -5z"/>
<path d="M3962 3824 c14 -14 21 -15 30 -6 8 8 9 12 1 12 -6 0 -20 3 -30 6 -17
7 -17 6 -1 -12z"/>
<path d="M4234 3748 c3 -13 6 -27 6 -31 0 -5 4 -6 9 -3 11 7 2 56 -11 56 -6 0
-8 -10 -4 -22z"/>
<path d="M1026 3562 c-7 -11 21 -25 35 -16 5 3 9 11 9 17 0 7 -4 6 -10 -3 -8
-12 -11 -13 -19 -1 -5 8 -11 9 -15 3z"/>
<path d="M4110 3524 c0 -8 5 -12 10 -9 6 4 8 11 5 16 -9 14 -15 11 -15 -7z"/>
<path d="M961 3444 c-7 -8 -10 -18 -7 -21 3 -3 -1 -11 -9 -17 -23 -17 -23
-219 0 -321 10 -44 24 -87 30 -95 7 -8 15 -22 19 -30 3 -8 4 0 1 18 -3 20 -1
31 5 27 6 -4 11 10 12 32 1 36 3 52 8 63 7 16 5 96 -2 101 -5 3 -6 23 -2 45 7
36 8 37 15 14 4 -14 5 11 2 55 -2 44 -7 86 -9 93 -3 9 2 11 15 7 12 -3 21 0
24 9 4 11 1 13 -10 9 -12 -5 -15 -2 -10 10 5 14 3 15 -13 5 -15 -10 -22 -10
-32 0 -15 15 -20 15 -37 -4z"/>
<path d="M2906 3340 c7 -69 28 -145 48 -170 7 -8 33 -49 58 -90 98 -159 156
-197 315 -206 76 -4 124 -1 213 16 178 33 199 40 105 35 -63 -3 -74 -1 -52 7
27 10 27 11 11 29 -9 10 -25 19 -34 19 -10 0 -20 9 -23 20 -3 11 -17 24 -31
30 -14 5 -26 13 -26 17 0 5 -15 9 -34 10 -19 1 -47 8 -63 17 -26 14 -26 15 -5
16 12 0 22 4 22 8 0 11 -70 33 -82 26 -11 -7 -78 18 -78 29 0 5 -7 7 -15 4 -8
-4 -26 6 -42 23 -15 17 -38 30 -51 30 -14 0 -30 11 -43 33 -16 25 -19 27 -14
8 5 -15 2 -27 -6 -32 -21 -13 -29 -11 -29 7 0 10 -5 14 -15 10 -8 -3 -21 -9
-29 -12 -8 -3 -16 3 -19 15 -3 12 -1 19 3 16 5 -3 12 -1 15 5 9 14 -14 42 -27
34 -6 -4 -8 2 -3 15 10 31 -11 26 -24 -6 l-11 -28 4 28 c2 15 -1 27 -5 27 -18
0 -8 21 14 31 20 9 20 9 -6 5 -22 -3 -31 2 -38 18 -6 14 -7 0 -3 -44z m144
-155 c0 -8 -4 -15 -10 -15 -5 0 -10 7 -10 15 0 8 5 15 10 15 6 0 10 -7 10 -15z"/>
<path d="M2990 3325 c0 -24 3 -25 58 -25 31 0 64 -5 72 -10 13 -9 13 -10 0
-10 -25 -1 20 -30 46 -30 12 0 25 -7 28 -16 4 -11 12 -14 24 -9 9 4 35 7 57 6
22 -1 63 5 92 13 34 9 65 11 95 6 49 -9 56 -7 38 15 -15 19 -90 21 -90 3 -1
-8 -6 -6 -14 5 -11 14 -30 17 -119 17 -63 0 -107 4 -109 10 -2 6 -40 12 -86
13 -73 2 -82 4 -78 20 2 9 0 17 -5 17 -5 0 -9 -11 -9 -25z"/>
<path d="M4038 3285 c-2 -25 0 -45 4 -45 5 0 8 20 8 45 0 25 -2 45 -4 45 -2 0
-6 -20 -8 -45z"/>
<path d="M2610 3299 c0 -5 5 -7 10 -4 6 3 10 8 10 11 0 2 -4 4 -10 4 -5 0 -10
-5 -10 -11z"/>
<path d="M2563 3288 c2 -7 10 -13 17 -13 7 0 15 6 18 13 2 7 -5 12 -18 12 -13
0 -20 -5 -17 -12z"/>
<path d="M1316 3257 c-20 -43 18 -211 74 -331 35 -75 56 -104 67 -92 4 5 2 11
-4 13 -7 3 -13 13 -13 22 0 10 -9 26 -20 36 -11 10 -20 27 -20 37 0 11 -5 29
-12 41 -6 12 -15 38 -19 57 -4 19 -13 53 -19 75 -6 22 -15 67 -19 100 -5 43
-10 55 -15 42z"/>
<path d="M2510 3235 c0 -11 -9 -31 -20 -45 -24 -31 -28 -59 -5 -40 8 7 15 17
15 23 0 5 8 15 17 22 14 10 15 17 6 36 -11 22 -12 22 -13 4z"/>
<path d="M2481 3224 c0 -11 3 -14 6 -6 3 7 2 16 -1 19 -3 4 -6 -2 -5 -13z"/>
<path d="M4006 3141 c-4 -7 -5 -15 -2 -18 9 -9 19 4 14 18 -4 11 -6 11 -12 0z"/>
<path d="M2497 3080 c-3 -12 -14 -20 -27 -20 -14 0 -24 -8 -27 -20 -13 -51
-75 -163 -112 -203 -41 -44 -65 -107 -42 -107 6 0 14 7 17 15 4 8 25 24 49 34
47 21 52 26 59 62 28 137 47 190 75 201 14 5 21 16 21 33 0 30 -6 32 -13 5z"/>
<path d="M2407 3083 c-4 -3 -7 -11 -7 -17 0 -6 5 -5 12 2 6 6 9 14 7 17 -3 3
-9 2 -12 -2z"/>
<path d="M2080 2996 c-5 -5 -10 -16 -10 -24 0 -8 -10 -12 -27 -11 -53 4 -89
-11 -104 -44 -8 -18 -27 -39 -44 -47 -16 -8 -31 -20 -32 -25 -2 -6 -9 -10 -15
-10 -7 0 -13 -11 -13 -25 0 -14 6 -26 13 -26 25 -3 27 -5 10 -15 -35 -20 -17
-29 60 -29 82 0 233 22 286 41 26 9 35 20 45 55 15 50 7 149 -12 161 -19 11
-145 11 -157 -1z"/>
<path d="M3930 2980 c0 -5 5 -10 10 -10 6 0 10 5 10 10 0 6 -4 10 -10 10 -5 0
-10 -4 -10 -10z"/>
<path d="M3780 2970 c20 -13 43 -13 35 0 -3 6 -16 10 -28 10 -18 0 -19 -2 -7
-10z"/>
<path d="M5093 2973 c-188 -2 -323 -7 -323 -12 0 -6 12 -12 28 -14 19 -3 14
-4 -15 -6 -24 0 -43 4 -43 9 0 16 -17 12 -24 -6 -3 -8 -2 -12 4 -9 17 11 11
-7 -7 -21 -16 -12 -16 -13 -2 -14 9 0 20 7 23 16 6 15 22 16 136 11 72 -3 128
-2 125 2 -8 14 89 -1 103 -16 8 -7 9 -13 3 -13 -6 0 -11 -4 -11 -10 0 -6 27
-10 61 -10 34 0 75 -7 92 -14 18 -8 46 -17 62 -19 24 -3 21 -4 -12 -6 -23 0
-43 4 -45 10 -2 7 -22 8 -56 3 -42 -5 -52 -10 -52 -25 0 -16 8 -19 48 -20 26
0 85 -7 132 -15 47 -8 104 -17 128 -20 23 -4 42 -10 42 -15 0 -5 18 -9 40 -9
22 0 40 5 40 10 0 6 27 10 60 10 l60 0 0 105 0 105 -137 -2 c-76 -2 -283 -4
-460 -5z m-146 -29 c-3 -3 -12 -4 -19 -1 -8 3 -5 6 6 6 11 1 17 -2 13 -5z"/>
<path d="M4520 2940 c0 -5 7 -10 16 -10 8 0 12 5 9 10 -3 6 -10 10 -16 10 -5
0 -9 -4 -9 -10z"/>
<path d="M4510 2910 c0 -5 5 -10 10 -10 6 0 10 5 10 10 0 6 -4 10 -10 10 -5 0
-10 -4 -10 -10z"/>
<path d="M1475 2800 c10 -11 20 -20 23 -20 3 0 -3 9 -13 20 -10 11 -20 20 -23
20 -3 0 3 -9 13 -20z"/>
<path d="M4631 2674 c0 -11 3 -14 6 -6 3 7 2 16 -1 19 -3 4 -6 -2 -5 -13z"/>
<path d="M3930 2473 c0 -22 2 -25 10 -13 13 20 13 40 0 40 -5 0 -10 -12 -10
-27z"/>
<path d="M5195 2280 c-3 -6 1 -7 9 -4 18 7 21 14 7 14 -6 0 -13 -4 -16 -10z"/>
<path d="M1586 2225 c-16 -24 -16 -25 9 -25 18 0 25 5 25 19 0 31 -16 33 -34
6z"/>
<path d="M3930 2148 c0 -19 2 -20 10 -8 13 19 13 30 0 30 -5 0 -10 -10 -10
-22z"/>
<path d="M3905 2100 c3 -5 8 -10 11 -10 2 0 4 5 4 10 0 6 -5 10 -11 10 -5 0
-7 -4 -4 -10z"/>
<path d="M3891 2064 c0 -11 3 -14 6 -6 3 7 2 16 -1 19 -3 4 -6 -2 -5 -13z"/>
<path d="M3920 2051 c0 -25 6 -27 13 -6 4 8 2 17 -3 20 -6 4 -10 -3 -10 -14z"/>
<path d="M4092 1919 c-12 -11 -26 -18 -30 -15 -5 3 -9 -1 -9 -9 0 -12 5 -12
28 1 28 14 44 32 37 40 -3 2 -14 -5 -26 -17z"/>
<path d="M4110 1880 c-20 -29 -21 -30 -2 -30 10 0 26 8 36 19 14 16 15 20 2
30 -11 10 -18 6 -36 -19z"/>
<path d="M1877 1846 c-9 -7 -17 -23 -17 -35 0 -11 -6 -21 -14 -21 -21 0 -39
-28 -31 -47 7 -16 9 -15 14 6 10 38 31 38 31 1 0 -18 4 -29 10 -25 6 3 13 0
16 -9 8 -20 34 -9 34 15 0 21 -16 26 -23 7 -4 -10 -8 -10 -16 1 -6 10 -6 21 0
33 6 10 7 23 4 28 -3 5 -1 19 5 31 14 26 10 31 -13 15z"/>
<path d="M1830 1840 c0 -5 5 -10 10 -10 6 0 10 5 10 10 0 6 -4 10 -10 10 -5 0
-10 -4 -10 -10z"/>
<path d="M3890 1803 c0 -5 7 -18 15 -29 15 -18 15 -18 13 5 -3 23 -28 44 -28
24z"/>
<path d="M3865 1700 c-3 -5 -1 -10 4 -10 6 0 11 5 11 10 0 6 -2 10 -4 10 -3 0
-8 -4 -11 -10z"/>
<path d="M1780 1668 c0 -2 6 -20 13 -40 l13 -36 13 29 c7 17 12 32 10 33 -6 5
-49 18 -49 14z"/>
<path d="M3642 1463 c2 -9 14 -20 28 -23 65 -15 12 -60 -71 -60 -35 0 -55 -10
-44 -22 3 -3 25 -2 50 2 25 4 45 3 45 -2 0 -9 66 16 87 34 10 8 11 14 3 22 -5
5 -10 20 -10 32 0 22 -23 34 -68 34 -17 0 -23 -5 -20 -17z"/>
<path d="M3340 1450 c0 -5 7 -10 15 -10 8 0 15 5 15 10 0 6 -7 10 -15 10 -8 0
-15 -4 -15 -10z"/>
<path d="M2082 1173 c-16 -17 -15 -26 2 -20 8 3 29 2 45 -3 35 -10 50 3 31 25
-15 18 -61 16 -78 -2z"/>
<path d="M2668 133 c7 -3 16 -2 19 1 4 3 -2 6 -13 5 -11 0 -14 -3 -6 -6z"/>
</g>
</svg>
